# xmcd
#
# Track frame offsets:
# 150
# 16625
# 36015
# 55035
# 72482
# 94110
# 110312
# 127732
# 144817
# 164870
# 183685
# 201742
#
# Disc length: 2919 seconds
#
#
# Revision: 0
# Processed by: cddbd v1.5.1PL2 Copyright (c) Steve Scherf et al.
# Submitted via: FreeRIP 2.944 
#
DISCID=a50b650c
DTITLE=Joe Cocker and Jeniffer Warness - Musica Para Enamorados
DYEAR=1999
DGENRE=Ballad
TTITLE0=Unchained melody
TTITLE1=The Lady in red
TTITLE2=Baby come back
TTITLE3=Love hurts
TTITLE4=Baby i love your way
TTITLE5=How deep is your love
TTITLE6=Do that to me on more time
TTITLE7=Nothing gonna change my love for you
TTITLE8=Babe
TTITLE9=Hello
TTITLE10=Cherish
TTITLE11=Up where we belong
EXTD=
EXTT0=
EXTT1=
EXTT2=
EXTT3=
EXTT4=
EXTT5=
EXTT6=
EXTT7=
EXTT8=
EXTT9=
EXTT10=
EXTT11=
PLAYORDER=
